<?xml version="1.0" encoding="UTF-8"?>
<svg width="15px" height="17px" viewBox="0 0 15 17" version="1.1" xmlns="http://www.w3.org/2000/svg" xmlns:xlink="http://www.w3.org/1999/xlink">
    <!-- Generator: Sketch 49.2 (51160) - http://www.bohemiancoding.com/sketch -->
    <title>diy</title>
    <desc>Created with Sketch.</desc>
    <defs></defs>
    <g id="Badges" stroke="none" stroke-width="1" fill="none" fill-rule="evenodd">
        <g id="Event-Badges" transform="translate(-1373.000000, -220.000000)" fill="#322B5E" fill-rule="nonzero">
            <g id="Group-5-Copy" transform="translate(1343.972656, 132.535156)">
                <g id="976030" transform="translate(0.000000, 64.000000)">
                    <g id="Group-4-Copy" transform="translate(18.000000, 15.878906)">
                        <g id="diy" transform="translate(11.306641, 8.143453)">
                            <path d="M11,10 C10.6,10 10.2,10.1 9.9,10.2 L8.5,8.6 L12.2,4.9 C13.5,3.6 13.7,1.6 12.8,-8.8817842e-16 L7,6.8 L1.1,-3.94430453e-31 C0.2,1.6 0.4,3.6 1.7,4.9 L5.4,8.6 L4,10.2 C3.8,10.1 3.4,10 3,10 C1.3,10 0,11.3 0,13 C0,14.7 1.3,16 3,16 C4.7,16 6,14.7 6,13 C6,12.5 5.8,12 5.6,11.5 L7,10.1 L8.4,11.5 C8.2,12 8,12.5 8,13 C8,14.7 9.3,16 11,16 C12.7,16 14,14.7 14,13 C14,11.3 12.7,10 11,10 Z M3,14 C2.4,14 2,13.6 2,13 C2,12.4 2.4,12 3,12 C3.6,12 4,12.4 4,13 C4,13.6 3.6,14 3,14 Z M11,14 C10.4,14 10,13.6 10,13 C10,12.4 10.4,12 11,12 C11.6,12 12,12.4 12,13 C12,13.6 11.6,14 11,14 Z" id="Shape"></path>
                        </g>
                    </g>
                </g>
            </g>
        </g>
    </g>
</svg>