<?xml version="1.0" encoding="UTF-8"?>
<svg width="16px" height="17px" viewBox="0 0 16 17" version="1.1" xmlns="http://www.w3.org/2000/svg" xmlns:xlink="http://www.w3.org/1999/xlink">
    <!-- Generator: Sketch 49.2 (51160) - http://www.bohemiancoding.com/sketch -->
    <title>pottery</title>
    <desc>Created with Sketch.</desc>
    <defs></defs>
    <g id="Badges" stroke="none" stroke-width="1" fill="none" fill-rule="evenodd">
        <g id="Event-Badges" transform="translate(-564.000000, -221.000000)" fill="#322B5E" fill-rule="nonzero">
            <g id="Group-10-Copy" transform="translate(135.000000, 132.000000)">
                <g id="Group-5-Copy" transform="translate(400.000000, 0.535156)">
                    <g id="976030" transform="translate(0.000000, 64.000000)">
                        <g id="Group-4-Copy" transform="translate(18.000000, 15.878906)">
                            <g id="pottery" transform="translate(11.000000, 9.000000)">
                                <path d="M8,0 C4,0 0,1.4 0,4 L0,8 C0,12.4 3.6,16 8,16 C12.4,16 16,12.4 16,8 L16,4 C16,1.4 12,0 8,0 Z M8,2 C11.7,2 14,3.3 14,4 C14,4.7 11.7,6 8,6 C4.3,6 2,4.7 2,4 C2,3.3 4.3,2 8,2 Z" id="Shape"></path>
                            </g>
                        </g>
                    </g>
                </g>
            </g>
        </g>
    </g>
</svg>